ply
format ascii 1.0
element vertex 390
property float32 x
property float32 y
property float32 z
element face 471
property list uint8 int32 vertex_indices
end_header
1.86539 0.546302 0
1.90061 0.346084 0
1.80247 0.164469 0
1.59226 0.152528 0
1.37032 0.221141 0
1.1438 0.276949 0
0.911653 0.280137 0
0.68632 0.224738 0
0.483944 0.112123 0
0.322516 -0.0537243 0
0.209816 -0.257062 0
0.139137 -0.47963 0
0.0987091 -0.710341 0
0.0637117 -0.941886 0
-0.00613907 -1.16356 0
-0.132281 -1.35804 0
-0.300958 -1.51882 0
-0.495667 -1.64766 0
-0.710311 -1.73699 0
-0.937317 -1.75889 0
-1.13458 -1.6693 0
-1.2023 -1.47189 0
-1.11624 -1.26668 0
-0.963576 -1.09085 0
-0.791457 -0.931633 0
-0.614508 -0.777559 0
-0.442092 -0.618788 0
-0.301044 -0.441586 0
-0.289874 -0.271818 0
-0.485604 -0.284927 0
-0.71244 -0.339981 0
-0.94296 -0.350315 0
-1.15659 -0.274809 0
-1.29203 -0.108942 0
-1.24869 0.0925345 0
-1.07007 0.225484 0
-0.846923 0.288279 0
-0.614055 0.312497 0
-0.379882 0.326588 0
-0.146932 0.350945 0
0.0779224 0.410021 0
0.277537 0.527902 0
0.454099 0.681263 0
0.639782 0.821967 0
0.853916 0.910144 0
1.08445 0.941678 0
1.31735 0.928176 0
1.53328 0.860443 0
-0.0605354 -0.36632 0
-0.916203 -1.47496 0
-0.469925 -1.16476 0
-0.195123 -0.699221 0
-0.963932 -0.0585768 0
-0.493899 0.0332429 0
0.03235 0.0684687 0
1.57713 0.458762 0
0.484817 0.3897 0
0.845488 0.594407 0
-1.06383 -1.41673 0
-1.0108 -1.6063 0
-0.683107 -1.51073 0
-0.338379 -1.3234 0
-0.231645 -1.10517 0
-0.548897 -1.35479 0
-0.728972 -1.18554 0
-0.577517 -0.99038 0
-0.0416118 -0.575905 0
-0.0471902 -0.809942 0
-1.08533 0.0603091 0
-1.01456 -0.208687 0
-0.493855 0.191934 0
-0.701894 0.101275 0
-0.395305 -0.109487 0
-0.175942 -0.009511 0
-0.300483 0.145406 0
0.230375 0.167649 0
-0.0187003 0.231689 0
0.135876 -0.0636413 0
1.52469 0.307773 0
1.7198 0.336488 0
1.72481 0.600389 0
1.66325 0.700246 0
1.35611 0.644967 0
1.37003 0.439065 0
0.792146 0.753597 0
0.688692 0.456267 0
1.01598 0.475487 0
-0.832622 -1.61714 0
-0.459215 -1.48844 0
-0.786485 -1.36108 0
-0.902326 0.109054 0
-0.644941 -0.126118 0
0.304889 0.334559 0
1.52574 0.626892 0
1.39996 0.789734 0
1.20529 0.768168 0
0.994831 0.736146 0
0.83934 0.425703 0
0.641146 0.631136 0
1.19561 0.554507 0
-0.94392 -1.27776 0
-0.803596 -0.0427356 0
-0.840976 -0.20894 0
-0.378925 -0.854051 0
-1.14372 -0.0951169 0
-0.380428 -1.01696 0
-0.200912 -0.913734 0
-0.0765931 -1.00683 0
-0.0439184 -0.159124 0
-1.04594 -1.72922 0
-0.982698 -1.66867 0
-1.04911 -1.63439 0
-0.0530475 -0.263917 0
-0.160678 -0.205055 0
-0.1795 -0.296607 0
-0.985695 -0.278211 0
-0.870662 -0.270093 0
-0.925186 -0.214178 0
-1.04503 -1.51944 0
-1.12818 -1.44295 0
-1.0861 -1.56825 0
-1.09615 -1.34536 0
-1.17361 -1.36677 0
-0.861276 -1.41791 0
-0.800642 -1.49012 0
-0.74076 -1.42838 0
1.02779 0.285795 0
1.08013 0.38766 0
0.991513 0.396892 0
-0.758649 -1.28753 0
-0.663808 -1.35922 0
-0.639282 -1.26906 0
-0.924187 -1.6216 0
-0.873061 -1.69084 0
-0.587667 -1.58751 0
-0.47806 -1.55995 0
-0.555573 -1.50183 0
-0.769399 -1.57001 0
-0.873462 -1.54499 0
-0.444045 -0.0419048 0
-0.340914 0.0193128 0
-0.405082 0.0748445 0
-0.588399 0.15331 0
-0.55094 0.244711 0
-0.664888 0.214876 0
-0.21245 -1.44253 0
-0.263156 -1.32537 0
-0.311898 -1.39729 0
-0.279525 -0.667166 0
-0.391951 -0.771635 0
-0.282554 -0.776861 0
-0.660016 -0.973762 0
-0.592308 -0.913024 0
-0.703043 -0.854529 0
-0.231955 -0.577012 0
-0.362358 -0.533121 0
0.677553 0.347723 0
0.764201 0.334084 0
0.764524 0.439149 0
-0.508498 -1.26277 0
-0.597903 -1.18076 0
-0.438473 -1.33863 0
-0.499128 -1.42083 0
-0.391445 -1.40868 0
-0.882562 0.172633 0
-0.80264 0.110225 0
-0.773754 0.199407 0
-0.730973 0.303303 0
-1.19207 -0.0317747 0
-1.12247 -0.0173735 0
-1.16369 0.0781129 0
-0.0479412 -1.07479 0
0.0349913 -1.05507 0
-0.00743878 -0.984299 0
-0.823974 -1.75927 0
-0.775663 -1.66783 0
-1.05482 -0.324307 0
-1.07966 -0.244833 0
-1.15678 -0.163566 0
-1.08365 -0.155013 0
-1.08411 0.138164 0
-1.17034 0.168985 0
-0.176738 -1.22873 0
-0.0627035 -1.26479 0
-0.112614 -1.14308 0
-0.946737 -1.21148 0
-1.04448 -1.17556 0
-1.00987 -1.26034 0
-0.591051 0.056392 0
-0.671907 -0.0131017 0
-0.56411 -0.0394493 0
-0.536979 -1.08568 0
-0.655962 -1.08704 0
0.0830459 -0.826568 0
0.00670479 -0.77191 0
-0.0021413 -0.857661 0
0.0462244 -0.117972 0
0.062976 -0.214755 0
0.160684 -0.161338 0
-1.00987 -1.3399 0
-0.991697 -1.4503 0
-0.939664 -1.3767 0
-0.565271 -0.211782 0
-0.67679 -0.239424 0
-0.598704 -0.314032 0
0.198024 0.370769 0
0.167642 0.283719 0
0.276924 0.260471 0
-0.441039 0.253883 0
-0.496965 0.319495 0
-0.405166 0.173451 0
-0.335365 0.244683 0
-0.119424 -0.631998 0
-0.149583 -0.51411 0
-0.228069 -0.150503 0
-0.287356 -0.0636235 0
-0.319628 -0.179121 0
0.288979 0.052143 0
0.397402 0.0350069 0
0.340345 0.149416 0
-0.491837 0.115979 0
-0.878769 -1.00997 0
-0.853062 -1.13142 0
-0.764738 -1.0575 0
-0.962659 -1.54392 0
-0.140023 -0.958044 0
-0.0586832 -0.909873 0
-0.120392 -0.860586 0
-0.521705 -0.125864 0
0.116416 -0.594429 0
0.0213491 -0.539852 0
0.0195599 -0.623936 0
-0.870769 -1.31437 0
-0.216073 0.25716 0
-0.262985 0.336067 0
-0.0386967 -0.69365 0
-0.110936 -0.750334 0
-0.271562 -0.343143 0
-0.168611 -0.407195 0
-0.99202 0.0912458 0
-0.958945 0.160966 0
-0.0323796 0.374232 0
-0.0661137 0.282992 0
0.0424695 0.311746 0
0.260347 -0.151902 0
0.22292 -0.0579863 0
0.720975 0.789971 0
0.632683 0.707695 0
0.714255 0.697635 0
-0.0181662 -0.0508663 0
0.085264 0.00554796 0
-0.395553 -1.58746 0
-0.384629 -1.50479 0
1.80453 0.451727 0
1.82701 0.337749 0
1.9002 0.457901 0
-0.483042 -0.920312 0
-0.465356 -0.827808 0
0.0612239 -0.315261 0
0.0215894 -0.408006 0
0.169841 -0.366739 0
-0.687013 -1.62461 0
-0.600731 -1.69864 0
1.45062 0.362808 0
1.55041 0.38115 0
1.48506 0.452287 0
-0.283936 -1.21169 0
1.64298 0.405101 0
1.61382 0.308885 0
0.58108 0.175454 0
0.571991 0.301241 0
0.480991 0.265935 0
-0.396367 -1.23739 0
0.186045 0.0412276 0
0.123585 0.121941 0
0.3852 0.348012 0
0.377512 0.462697 0
0.287012 0.422204 0
0.598863 0.418236 0
0.366861 0.603027 0
0.462666 0.539417 0
-0.433345 -0.179781 0
-0.371941 -0.261634 0
0.553375 0.513529 0
0.658637 0.541961 0
0.819367 0.825461 0
0.74376 0.873348 0
-0.526833 -0.699623 0
-1.18799 -1.57813 0
0.881656 0.754377 0
0.925559 0.837595 0
-0.737539 -0.0798578 0
-0.816947 -0.130748 0
-0.740872 -0.176055 0
1.55491 0.234624 0
1.4546 0.269396 0
1.48124 0.183356 0
1.64573 0.518912 0
1.61462 0.596328 0
1.5502 0.533239 0
-1.02215 -0.000477088 0
-0.933452 0.0252819 0
-1.29187 -0.0056285 0
-1.19376 -0.101016 0
-0.0563174 -0.468196 0
0.933125 0.452692 0
0.936584 0.549346 0
0.851595 0.513128 0
1.01505 0.609227 0
1.10511 0.512056 0
1.09391 0.647376 0
1.4318 0.905195 0
1.36382 0.856845 0
1.4628 0.82407 0
-0.280251 -0.881219 0
-0.189841 -0.812288 0
1.69113 0.639672 0
1.60809 0.673151 0
1.79491 0.581532 0
1.72005 0.46399 0
-0.429004 -1.08886 0
-0.346214 -1.13657 0
-0.316316 -1.05178 0
-0.828013 -0.353808 0
-0.795896 -0.257352 0
-1.05565 -0.0771019 0
-0.167359 0.186879 0
-0.234482 0.0721062 0
-0.103507 0.121453 0
-0.0733426 0.036745 0
0.0185523 0.160159 0
0.390892 0.231574 0
0.11449 0.221553 0
-0.117565 -0.0858384 0
1.65998 0.228832 0
1.70497 0.140671 0
1.76587 0.232865 0
1.45187 0.534711 0
1.86786 0.240606 0
1.46488 0.723858 0
1.53801 0.746773 0
1.20122 0.940325 0
1.15527 0.829777 0
1.23653 0.835128 0
1.35747 0.321133 0
1.27797 0.706553 0
1.38056 0.718639 0
1.29957 0.784838 0
1.25791 0.253869 0
1.27035 0.374347 0
0.54415 0.756091 0
0.570282 0.640509 0
0.823759 0.675675 0
0.92449 0.6616 0
0.79717 0.259708 0
0.872341 0.359382 0
0.743558 0.617019 0
1.28 0.482532 0
1.17966 0.426808 0
1.27692 0.597325 0
1.36447 0.554537 0
-0.619924 -1.43618 0
-0.843721 -1.22623 0
-0.961107 0.263793 0
-0.848491 0.0387033 0
-0.88435 -0.0506607 0
-0.759821 0.0172988 0
0.181226 0.462406 0
1.61054 0.782982 0
1.43208 0.630905 0
1.03369 0.845917 0
0.968081 0.932269 0
1.09961 0.75381 0
1.19332 0.668826 0
0.769627 0.536851 0
-0.901919 -0.134724 0
-0.988202 -0.13203 0
-0.480753 -1.00747 0
-0.378935 -0.939415 0
-0.284155 -0.965343 0
-1.2413 -0.200845 0
-0.220403 -1.01268 0
-0.139761 -1.05056 0
-0.638987 -1.60667 0
-0.44073 -2.55459 0
-0.1924 -1.30739 0
1.80183 0.488129 0
-0.715176 -1.01787 0
-0.176966 -0.284281 0
1.72 0.440302 0
3 258 112 48 
4 27 213 114 237 
4 176 69 179 32 
4 336 79 268 334 
4 288 120 119 21 
3 123 124 125 
3 86 128 358 
3 129 130 131 
4 109 110 111 20 
3 61 163 146 
3 137 124 138 
3 139 140 141 
4 209 70 211 38 
3 382 184 107 
3 148 149 150 
3 151 152 387 
3 148 154 149 
3 156 157 158 
3 131 159 160 
3 161 162 163 
3 164 165 166 
3 71 142 166 
4 118 224 199 58 
4 14 184 182 183 
4 19 132 110 109 
4 32 179 178 380 
4 380 178 303 33 
4 35 239 240 363 
4 183 182 385 15 
3 100 185 199 
3 188 189 190 
3 160 191 192 
3 227 226 51 
3 75 273 219 
3 49 201 224 
4 30 203 324 323 
3 205 206 207 
4 38 211 233 234 
4 36 164 166 167 
3 212 213 154 
4 282 72 228 29 
3 117 376 69 
3 220 142 188 
4 186 185 222 23 
3 201 199 224 
3 225 226 227 
3 228 139 190 
3 66 235 230 
3 123 232 201 
4 234 233 326 39 
4 84 352 96 290 
3 48 114 213 
4 363 240 164 36 
4 40 206 205 367 
4 10 197 258 260 
4 286 84 290 44 
3 249 196 250 
4 17 134 383 262 
4 1 254 79 338 
4 24 387 152 153 
4 11 259 230 229 
4 18 261 87 174 
3 263 264 265 
4 145 146 163 16 
3 267 264 268 
3 56 271 156 
3 161 272 159 
3 250 273 274 
3 92 275 205 
4 269 271 331 8 
4 279 280 351 42 
4 29 228 91 204 
3 283 278 284 
4 44 290 96 371 
4 25 256 257 287 
4 28 214 72 282 
4 43 248 84 286 
3 291 292 293 
4 4 344 349 348 
3 297 298 299 
3 300 301 239 
4 302 168 170 34 
3 259 304 230 
3 305 306 307 
4 193 194 226 13 
3 308 309 310 
4 47 313 340 368 
4 155 154 213 27 
3 150 314 315 
4 316 298 297 80 
4 255 253 254 1 
3 320 321 322 
3 102 117 324 
3 272 266 321 
4 303 325 169 168 
4 23 222 223 221 
3 326 327 328 
3 215 327 140 
4 211 74 326 233 
3 329 330 328 
3 331 271 275 
4 39 326 76 241 
4 241 76 206 40 
3 332 330 274 
4 244 77 197 10 
3 249 329 333 
4 335 334 268 3 
3 299 337 265 
4 296 78 344 4 
4 2 336 334 335 
3 319 297 267 
3 339 340 313 
3 95 347 342 
4 3 268 78 296 
3 345 346 347 
4 348 349 358 5 
4 350 247 248 43 
4 386 319 389 253 
4 354 157 156 7 
3 352 248 356 
3 357 358 349 
3 359 357 360 
3 132 138 224 
4 174 87 132 19 
4 251 88 134 17 
3 136 162 361 
3 130 125 361 
3 362 222 185 
3 362 64 222 
3 364 301 365 
4 204 91 203 30 
3 291 189 366 
3 275 276 205 
3 331 207 219 
4 81 317 298 316 
3 337 369 360 
4 311 94 313 47 
3 339 346 369 
4 45 370 342 341 
3 372 310 373 
3 308 353 306 
3 370 372 342 
3 305 355 128 
3 374 158 307 
3 283 351 280 
3 284 374 356 
3 373 359 345 
4 126 128 355 6 
4 21 119 58 122 
3 362 232 129 
3 364 366 165 
3 375 376 117 
3 293 324 203 
3 292 365 375 
3 377 191 320 
3 378 379 314 
4 33 303 168 302 
3 325 179 376 
3 379 322 381 
3 377 378 256 
3 52 325 376 
3 212 51 235 
4 172 107 184 14 
3 382 225 381 
3 108 333 112 
3 197 112 258 
3 197 108 112 
3 137 87 261 
4 132 224 111 110 
3 48 112 114 
4 120 118 58 119 
3 94 339 313 
3 360 357 83 
3 62 382 381 
4 31 117 69 176 
4 388 112 214 28 
3 333 214 112 
4 20 111 120 288 
3 360 369 82 
4 5 358 128 126 
3 98 247 351 
3 89 123 125 
3 123 49 124 
3 125 124 60 
4 6 355 157 354 
3 349 344 83 
3 309 86 358 
3 64 129 131 
3 129 89 130 
3 131 130 63 
3 267 297 55 
3 307 158 97 
4 260 258 259 11 
3 60 134 136 
3 136 134 88 
3 106 379 381 
3 87 137 138 
3 137 60 124 
3 138 124 49 
3 53 139 141 
3 139 72 140 
3 141 140 74 
4 37 142 70 209 
3 364 90 301 
3 365 301 52 
3 62 184 382 
3 266 146 385 
4 16 163 88 251 
3 51 148 150 
4 287 257 149 26 
3 150 149 103 
4 221 223 387 24 
3 151 65 152 
4 153 152 256 25 
4 46 347 94 311 
3 148 51 154 
4 26 149 154 155 
3 85 156 158 
4 7 156 271 269 
3 158 157 97 
3 64 131 160 
3 131 63 159 
3 160 159 50 
3 61 161 163 
3 161 63 162 
3 163 162 88 
4 167 166 142 37 
3 164 90 165 
3 166 165 71 
3 90 164 301 
4 22 199 185 186 
4 181 68 239 35 
4 34 170 68 181 
4 168 169 68 170 
3 299 93 337 
3 377 105 378 
3 65 377 256 
3 376 179 69 
3 214 333 73 
4 253 389 79 254 
3 382 107 225 
3 224 138 49 
3 132 87 138 
3 381 322 62 
4 179 325 303 178 
3 366 189 71 
3 381 225 106 
3 361 125 60 
3 130 89 125 
3 361 162 63 
3 62 182 184 
4 15 385 146 145 
3 266 385 182 
4 122 58 199 22 
3 345 82 346 
3 347 346 94 
3 53 188 190 
3 188 71 189 
3 190 189 91 
3 64 160 192 
3 160 50 191 
3 192 191 65 
3 315 227 51 
3 314 379 106 
4 13 226 107 172 
3 196 197 77 
3 196 108 197 
3 375 365 52 
3 100 199 201 
3 356 374 57 
4 111 224 118 120 
3 215 72 214 
3 358 99 309 
3 83 357 349 
3 92 205 207 
4 367 205 276 41 
3 207 206 75 
3 101 364 365 
3 57 352 356 
3 141 74 220 
3 357 99 358 
3 102 292 375 
3 356 248 98 
3 51 212 154 
3 212 66 213 
4 341 342 347 46 
3 97 157 355 
3 214 73 215 
3 362 100 232 
4 9 273 77 244 
3 375 52 376 
4 218 219 273 9 
3 53 220 188 
3 220 70 142 
3 188 142 71 
3 192 387 223 
3 95 345 347 
3 223 222 64 
3 265 337 83 
3 56 283 280 
4 239 301 164 240 
3 106 225 227 
3 225 107 226 
3 249 54 329 
3 91 228 190 
3 228 72 139 
3 190 139 53 
3 378 105 379 
4 229 230 235 12 
4 12 235 194 193 
3 49 123 201 
3 123 89 232 
3 201 232 100 
3 101 291 366 
4 169 325 239 68 
3 291 91 189 
3 342 372 95 
3 235 66 212 
3 86 305 128 
3 112 388 114 
4 368 340 317 81 
3 304 48 213 
3 63 130 361 
4 70 220 74 211 
3 100 362 185 
3 332 206 76 
3 219 207 75 
3 331 92 207 
3 105 377 320 
3 292 101 365 
4 323 324 117 31 
3 95 372 373 
3 93 339 369 
3 248 247 98 
3 54 249 250 
3 249 108 196 
3 250 196 77 
3 261 383 60 
3 283 98 351 
3 315 106 227 
4 0 386 253 255 
3 267 389 319 
3 374 85 158 
3 65 256 152 
3 256 103 257 
3 151 387 192 
3 377 65 191 
3 258 48 259 
3 320 191 50 
3 379 105 322 
3 60 383 134 
4 262 383 261 18 
3 83 263 265 
3 263 78 264 
3 265 264 55 
3 62 266 182 
3 266 61 146 
3 256 378 103 
3 79 267 268 
3 267 55 264 
3 268 264 78 
4 8 331 219 218 
3 90 364 165 
3 278 56 156 
3 63 161 159 
3 161 61 272 
3 159 272 50 
3 54 250 274 
3 250 77 273 
3 274 273 75 
4 41 276 280 279 
3 275 56 276 
3 340 93 317 
3 129 232 89 
3 156 85 278 
3 364 101 366 
4 42 351 247 350 
3 83 337 360 
3 280 276 56 
3 79 389 267 
3 352 84 248 
3 64 362 129 
3 98 283 284 
3 283 56 278 
3 284 278 85 
3 308 96 353 
4 371 96 370 45 
3 353 96 352 
3 263 83 344 
3 257 103 149 
3 373 99 359 
3 98 284 356 
3 332 76 330 
3 352 57 353 
3 369 346 82 
3 75 332 274 
3 339 94 346 
3 91 291 293 
3 291 101 292 
3 293 292 102 
3 284 85 374 
3 345 359 82 
3 263 344 78 
3 55 297 299 
4 80 297 319 318 
3 299 298 93 
3 300 239 325 
3 300 52 301 
3 91 293 203 
4 237 114 388 28 
3 136 88 162 
3 60 136 361 
3 103 378 314 
3 259 48 304 
4 235 51 226 194 
3 97 305 307 
3 305 86 306 
3 307 306 57 
3 261 60 137 
3 332 75 206 
3 337 93 369 
3 96 308 310 
3 308 86 309 
3 310 309 99 
3 373 310 99 
3 306 353 57 
3 370 96 372 
3 339 93 340 
3 102 375 117 
3 372 96 310 
3 51 150 315 
3 150 103 314 
3 315 314 106 
3 86 308 306 
3 305 97 355 
3 298 317 93 
3 274 330 54 
3 57 374 307 
4 318 319 386 0 
3 105 320 322 
3 320 50 321 
3 322 321 62 
4 338 79 336 2 
3 359 99 357 
3 82 359 360 
3 50 272 321 
3 272 61 266 
3 321 266 62 
3 55 299 265 
3 325 52 300 
3 333 329 73 
3 64 192 223 
3 192 65 151 
3 95 373 345 
3 76 326 328 
3 326 74 327 
3 328 327 73 
3 72 215 140 
3 215 73 327 
3 140 327 74 
3 53 141 220 
3 108 249 333 
3 293 102 324 
3 73 329 328 
3 329 54 330 
3 328 330 76 
3 92 331 275 
3 165 366 71 
3 275 271 56 
3 66 230 213 
3 304 213 230 
