ply
format ascii 1.0
comment VCGLIB generated
element vertex 109
property float x
property float y
property float z
element face 166
property list uchar int vertex_indices
end_header
1.88322 0.572888 0 
1.91719 0.342914 0 
1.81853 0.138299 0 
1.59141 0.143042 0 
1.37107 0.22367 0 
1.14475 0.284067 0 
0.910826 0.287523 0 
0.683514 0.231894 0 
0.478646 0.119015 0 
0.316158 -0.0490011 0 
0.204537 -0.254803 0 
0.135145 -0.478675 0 
0.0976872 -0.710183 0 
0.0684047 -0.942954 0 
0.00157796 -1.16718 0 
-0.126985 -1.36241 0 
-0.297915 -1.52265 0 
-0.493192 -1.65227 0 
-0.70827 -1.74502 0 
-0.939678 -1.77353 0 
-1.1522 -1.68492 0 
-1.22379 -1.47134 0 
-1.12343 -1.26219 0 
-0.965529 -1.08893 0 
-0.792008 -0.931015 0 
-0.614078 -0.778042 0 
-0.439589 -0.621203 0 
-0.285127 -0.44504 0 
-0.257997 -0.241247 0 
-0.485885 -0.282021 0 
-0.711522 -0.346043 0 
-0.944505 -0.361572 0 
-1.16513 -0.287042 0 
-1.31747 -0.114648 0 
-1.26627 0.103391 0 
-1.07441 0.234578 0 
-0.847805 0.293009 0 
-0.614141 0.313596 0 
-0.379789 0.325395 0 
-0.146181 0.34674 0 
0.0814217 0.401724 0 
0.28103 0.523087 0 
0.452693 0.682967 0 
0.635608 0.829215 0 
0.851912 0.91748 0 
1.08425 0.947059 0 
1.31819 0.933592 0 
1.5454 0.876798 0 
-0.0676623 -0.370288 0 
-0.932736 -1.48235 0 
-0.471874 -1.16579 0 
-0.17605 -0.69648 0 
-0.963316 -0.0534436 0 
-0.482407 0.0303454 0 
0.0359138 0.091536 0 
1.58338 0.462466 0 
0.47517 0.367674 0 
0.855277 0.600062 0 
-1.07587 -1.41367 0 
-1.00305 -1.62634 0 
-0.686685 -1.49933 0 
-0.32979 -1.31736 0 
-0.234913 -1.08603 0 
-0.531035 -1.36363 0 
-0.72947 -1.19653 0 
-0.587942 -0.988408 0 
-0.0325235 -0.57033 0 
-0.0445468 -0.810517 0 
-1.0963 0.0607005 0 
-1.01666 -0.211338 0 
-0.490881 0.198663 0 
-0.712666 0.0955153 0 
-0.396062 -0.126819 0 
-0.183502 -0.0108588 0 
-0.302163 0.145292 0 
0.252972 0.174685 0 
-0.00376662 0.25579 0 
0.125792 -0.0789231 0 
1.52435 0.301169 0 
1.72092 0.320688 0 
1.7066 0.590177 0 
1.67567 0.689166 0 
1.36843 0.651672 0 
1.35914 0.437606 0 
0.790786 0.758105 0 
0.681724 0.45688 0 
1.03051 0.47 0 
-0.818044 -1.61158 0 
-0.453435 -1.50026 0 
-0.800751 -1.36102 0 
-0.89448 0.116088 0 
-0.652309 -0.125109 0 
0.298804 0.346325 0 
1.52858 0.616911 0 
1.40648 0.803888 0 
1.19116 0.76552 0 
0.991233 0.74772 0 
0.844075 0.436865 0 
0.636708 0.640328 0 
1.20446 0.551553 0 
-0.947494 -1.26395 0 
-0.797927 -0.0463783 0 
-0.836938 -0.219916 0 
-0.366506 -0.8643 0 
-1.14744 -0.101949 0 
-0.386913 -1.02633 0 
-0.193175 -0.911348 0 
-0.0739185 -1.02261 0 
-0.0559776 -0.16814 0 
3 20 19 59 
3 48 108 28 
3 69 31 102 
3 59 58 21 
3 58 22 21 
3 89 49 60 
3 6 5 86 
3 64 89 63 
3 87 59 19 
3 60 17 88 
3 87 60 49 
3 53 72 74 
3 71 70 37 
3 16 15 61 
3 51 26 103 
3 24 65 25 
3 26 51 27 
3 85 7 97 
3 64 63 50 
3 61 63 88 
3 36 90 71 
3 37 36 71 
3 34 104 68 
3 107 14 13 
3 87 19 18 
3 32 31 69 
3 104 32 69 
3 68 35 34 
3 62 15 14 
3 100 23 22 
3 53 71 91 
3 64 50 65 
3 13 12 67 
3 77 108 10 
3 100 58 49 
3 29 91 30 
3 92 40 75 
3 37 70 38 
3 70 74 38 
3 51 66 27 
3 28 73 72 
3 75 9 8 
3 53 70 71 
3 24 23 64 
3 58 59 49 
3 106 107 67 
3 91 72 53 
3 12 11 66 
3 49 89 100 
3 38 74 39 
3 67 66 51 
3 28 27 48 
3 68 90 35 
3 40 39 76 
3 77 10 9 
3 84 43 98 
3 54 108 77 
3 88 17 16 
3 0 79 1 
3 65 103 25 
3 10 48 11 
3 60 18 17 
3 83 78 55 
3 62 61 15 
3 79 55 78 
3 8 7 56 
3 63 61 50 
3 54 77 75 
3 92 56 41 
3 7 85 56 
3 42 41 56 
3 28 72 29 
3 98 56 85 
3 43 84 44 
3 25 103 26 
3 59 21 20 
3 84 96 44 
3 91 101 102 
3 3 78 4 
3 55 80 93 
3 68 52 90 
3 104 34 33 
3 11 48 66 
3 97 86 57 
3 66 67 12 
3 96 86 99 
3 47 46 94 
3 27 66 48 
3 51 103 106 
3 80 81 93 
3 79 0 80 
3 105 50 62 
3 102 31 30 
3 50 61 62 
3 104 52 68 
3 64 65 24 
3 76 74 73 
3 72 73 74 
3 53 74 70 
3 73 54 76 
3 92 8 56 
3 76 75 40 
3 74 76 39 
3 75 76 54 
3 75 77 9 
3 108 54 73 
3 79 3 2 
3 55 93 83 
3 3 79 78 
3 2 1 79 
3 79 80 55 
3 94 93 47 
3 46 45 95 
3 78 83 4 
3 95 82 94 
3 5 4 83 
3 98 43 42 
3 84 57 96 
3 97 7 6 
3 57 84 98 
3 83 99 5 
3 82 99 83 
3 59 87 49 
3 18 60 87 
3 61 88 16 
3 60 88 63 
3 63 89 60 
3 100 64 23 
3 90 36 35 
3 101 90 52 
3 91 29 72 
3 101 91 71 
3 40 92 41 
3 8 92 75 
3 47 93 81 
3 83 93 82 
3 95 94 46 
3 93 94 82 
3 44 96 45 
3 95 96 99 
3 86 96 57 
3 45 96 95 
3 86 97 6 
3 57 85 97 
3 56 98 42 
3 98 85 57 
3 95 99 82 
3 5 99 86 
3 58 100 22 
3 64 100 89 
3 90 101 71 
3 102 52 69 
3 91 102 30 
3 102 101 52 
3 105 65 50 
3 103 105 106 
3 32 104 33 
3 52 104 69 
3 106 105 62 
3 65 105 103 
3 62 14 107 
3 51 106 67 
3 67 107 13 
3 62 107 106 
3 28 108 73 
3 10 108 48 
