ply
format ascii 1.0
comment Created by Blender 2.63 (sub 0) - www.blender.org, source file: ''
element vertex 109
property float x
property float y
property float z
property float nx
property float ny
property float nz
element face 166
property list uchar uint vertex_indices
end_header
-1.334553 -1.631997 0.000000 0.000000 0.000000 1.000000
-0.939678 -1.773530 0.000000 0.000000 0.000000 1.000000
-1.003050 -1.626340 0.000000 0.000000 0.000000 1.000000
-0.067662 -0.370288 0.000000 -0.000000 0.000000 1.000000
-0.055978 -0.168140 0.000000 -0.000000 0.000000 1.000000
-0.257997 -0.241247 0.000000 -0.000000 0.000000 1.000000
-1.016660 -0.211338 0.000000 0.000000 0.000000 1.000000
-0.944505 -0.361572 0.000000 0.000000 0.000000 1.000000
-0.836938 -0.219916 0.000000 0.000000 0.000000 1.000000
-1.075870 -1.413670 0.000000 -0.000000 0.000000 1.000000
-1.223790 -1.471340 0.000000 -0.000000 0.000000 1.000000
-1.123430 -1.262190 0.000000 -0.000000 0.000000 1.000000
-0.800751 -1.361020 0.000000 0.000000 -0.000000 1.000000
-0.932736 -1.482350 0.000000 0.000000 -0.000000 1.000000
-0.686685 -1.499330 0.000000 0.000000 -0.000000 1.000000
0.910826 0.287523 0.000000 0.000000 0.000000 1.000000
1.144750 0.284067 0.000000 0.000000 0.000000 1.000000
1.030510 0.470000 0.000000 0.000000 0.000000 1.000000
-0.729470 -1.196530 0.000000 0.000000 -0.000000 1.000000
-0.531035 -1.363630 0.000000 0.000000 -0.000000 1.000000
-0.818044 -1.611580 0.000000 0.000000 -0.000000 1.000000
-0.493192 -1.652270 0.000000 0.000000 0.000000 1.000000
-0.453435 -1.500260 0.000000 0.000000 0.000000 1.000000
-0.482407 0.030345 0.000000 0.000000 0.000000 1.000000
-0.396062 -0.126819 0.000000 0.000000 0.000000 1.000000
-0.302163 0.145292 0.000000 0.000000 0.000000 1.000000
-0.712666 0.095515 0.000000 0.000000 0.000000 1.000000
-0.490881 0.198663 0.000000 0.000000 0.000000 1.000000
-0.614141 0.313596 0.000000 0.000000 0.000000 1.000000
-0.297915 -1.522650 0.000000 0.000000 0.000000 1.000000
-0.126985 -1.362410 0.000000 0.000000 0.000000 1.000000
-0.329790 -1.317360 0.000000 0.000000 0.000000 1.000000
-0.176050 -0.696480 0.000000 -0.000000 -0.000000 1.000000
-0.439589 -0.621203 0.000000 -0.000000 -0.000000 1.000000
-0.366506 -0.864300 0.000000 -0.000000 -0.000000 1.000000
-0.792008 -0.931015 0.000000 0.000000 0.000000 1.000000
-0.587942 -0.988408 0.000000 0.000000 0.000000 1.000000
-0.614078 -0.778042 0.000000 0.000000 0.000000 1.000000
-0.285127 -0.445040 0.000000 0.000000 0.000000 1.000000
0.681724 0.456880 0.000000 0.000000 0.000000 1.000000
0.683514 0.231894 0.000000 0.000000 0.000000 1.000000
0.844075 0.436865 0.000000 0.000000 0.000000 1.000000
-0.471874 -1.165790 0.000000 0.000000 0.000000 1.000000
-0.847805 0.293009 0.000000 0.000000 -0.000000 1.000000
-0.894480 0.116088 0.000000 0.000000 -0.000000 1.000000
-1.266270 0.103391 0.000000 0.000000 0.000000 1.000000
-1.147440 -0.101949 0.000000 0.000000 0.000000 1.000000
-1.096300 0.060700 0.000000 0.000000 0.000000 1.000000
-0.073918 -1.022610 0.000000 0.000000 0.000000 1.000000
0.001578 -1.167180 0.000000 0.000000 0.000000 1.000000
0.068405 -0.942954 0.000000 0.000000 0.000000 1.000000
-0.708270 -1.745020 0.000000 0.000000 -0.000000 1.000000
-1.165130 -0.287042 0.000000 0.000000 0.000000 1.000000
-1.074410 0.234578 0.000000 -0.000000 0.000000 1.000000
-0.234913 -1.086030 0.000000 0.000000 0.000000 1.000000
-0.947494 -1.263950 0.000000 -0.000000 0.000000 1.000000
-0.965529 -1.088930 0.000000 -0.000000 0.000000 1.000000
-0.652309 -0.125109 0.000000 -0.000000 -0.000000 1.000000
0.097687 -0.710183 0.000000 -0.000000 0.000000 1.000000
-0.044547 -0.810517 0.000000 -0.000000 0.000000 1.000000
0.125792 -0.078923 0.000000 0.000000 -0.000000 1.000000
0.204537 -0.254803 0.000000 0.000000 -0.000000 1.000000
-0.485885 -0.282021 0.000000 -0.000000 0.000000 1.000000
-0.711522 -0.346043 0.000000 -0.000000 0.000000 1.000000
0.298804 0.346325 0.000000 -0.000000 -0.000000 1.000000
0.081422 0.401724 0.000000 -0.000000 -0.000000 1.000000
0.252972 0.174685 0.000000 -0.000000 -0.000000 1.000000
-0.379789 0.325395 0.000000 0.000000 0.000000 1.000000
-0.032524 -0.570330 0.000000 0.000000 0.000000 1.000000
-0.183502 -0.010859 0.000000 -0.000000 0.000000 1.000000
0.316158 -0.049001 0.000000 0.000000 0.000000 1.000000
0.478646 0.119015 0.000000 0.000000 0.000000 1.000000
-0.193175 -0.911348 0.000000 0.000000 0.000000 1.000000
0.135145 -0.478675 0.000000 -0.000000 0.000000 1.000000
-0.146181 0.346740 0.000000 0.000000 0.000000 1.000000
-0.003767 0.255790 0.000000 0.000000 -0.000000 1.000000
0.790786 0.758105 0.000000 -0.000000 -0.000000 1.000000
0.635608 0.829215 0.000000 -0.000000 -0.000000 1.000000
0.636708 0.640328 0.000000 -0.000000 -0.000000 1.000000
0.035914 0.091536 0.000000 0.000000 -0.000000 1.000000
1.883220 0.572888 0.000000 0.000000 -0.000000 1.000000
1.720920 0.320688 0.000000 0.000000 -0.000000 1.000000
1.917190 0.342914 0.000000 0.000000 -0.000000 1.000000
1.359140 0.437606 0.000000 0.000000 0.000000 1.000000
1.524350 0.301169 0.000000 0.000000 0.000000 1.000000
1.583380 0.462466 0.000000 0.000000 0.000000 1.000000
0.475170 0.367674 0.000000 0.000000 0.000000 1.000000
0.281030 0.523087 0.000000 0.000000 0.000000 1.000000
0.452693 0.682967 0.000000 0.000000 -0.000000 1.000000
0.851912 0.917480 0.000000 0.000000 0.000000 1.000000
0.991233 0.747720 0.000000 0.000000 0.000000 1.000000
-0.797927 -0.046378 0.000000 -0.000000 0.000000 1.000000
1.591410 0.143042 0.000000 -0.000000 0.000000 1.000000
1.371070 0.223670 0.000000 -0.000000 0.000000 1.000000
1.706600 0.590177 0.000000 0.000000 0.000000 1.000000
1.528580 0.616911 0.000000 0.000000 0.000000 1.000000
-0.963316 -0.053444 0.000000 0.000000 0.000000 1.000000
-1.317470 -0.114648 0.000000 -0.000000 0.000000 1.000000
0.855277 0.600062 0.000000 0.000000 0.000000 1.000000
1.204460 0.551553 0.000000 0.000000 0.000000 1.000000
1.545400 0.876798 0.000000 -0.000000 -0.000000 1.000000
1.318190 0.933592 0.000000 -0.000000 -0.000000 1.000000
1.406480 0.803888 0.000000 -0.000000 -0.000000 1.000000
1.675670 0.689166 0.000000 -0.000000 0.000000 1.000000
-0.386913 -1.026330 0.000000 0.000000 -0.000000 1.000000
1.818530 0.138299 0.000000 0.000000 -0.000000 1.000000
1.084250 0.947059 0.000000 -0.000000 -0.000000 1.000000
1.191160 0.765520 0.000000 -0.000000 -0.000000 1.000000
1.368430 0.651672 0.000000 0.000000 0.000000 1.000000
3 0 1 2
3 3 4 5
3 6 7 8
3 2 9 10
3 9 11 10
3 12 13 14
3 15 16 17
3 18 12 19
3 20 2 1
3 14 21 22
3 20 14 13
3 23 24 25
3 26 27 28
3 29 30 31
3 32 33 34
3 35 36 37
3 33 32 38
3 39 40 41
3 18 19 42
3 31 19 22
3 43 44 26
3 28 43 26
3 45 46 47
3 48 49 50
3 20 1 51
3 52 7 6
3 46 52 6
3 47 53 45
3 54 30 49
3 55 56 11
3 23 26 57
3 18 42 36
3 50 58 59
3 60 4 61
3 55 9 13
3 62 57 63
3 64 65 66
3 28 27 67
3 27 25 67
3 32 68 38
3 5 69 24
3 66 70 71
3 23 27 26
3 35 56 18
3 9 2 13
3 72 48 59
3 57 24 23
3 58 73 68
3 13 12 55
3 67 25 74
3 59 68 32
3 5 38 3
3 47 44 53
3 65 74 75
3 60 61 70
3 76 77 78
3 79 4 60
3 22 21 29
3 80 81 82
3 36 34 37
3 61 3 73
3 14 51 21
3 83 84 85
3 54 31 30
3 81 85 84
3 71 40 86
3 19 31 42
3 79 60 66
3 64 86 87
3 40 39 86
3 88 87 86
3 5 24 62
3 78 86 39
3 77 76 89
3 37 34 33
3 2 10 0
3 76 90 89
3 57 91 8
3 92 84 93
3 85 94 95
3 47 96 44
3 46 45 97
3 73 3 68
3 41 17 98
3 68 59 58
3 90 17 99
3 100 101 102
3 38 68 3
3 32 34 72
3 94 103 95
3 81 80 94
3 104 42 54
3 8 7 63
3 42 31 54
3 46 96 47
3 18 36 35
3 75 25 69
3 24 69 25
3 23 25 27
3 69 79 75
3 64 71 86
3 75 66 65
3 25 75 74
3 66 75 79
3 66 60 70
3 4 79 69
3 81 92 105
3 85 95 83
3 92 81 84
3 105 82 81
3 81 94 85
3 102 95 100
3 101 106 107
3 84 83 93
3 107 108 102
3 16 93 83
3 78 77 88
3 76 98 90
3 41 40 15
3 98 76 78
3 83 99 16
3 108 99 83
3 2 20 13
3 51 14 20
3 31 22 29
3 14 22 19
3 19 12 14
3 55 18 56
3 44 43 53
3 91 44 96
3 57 62 24
3 91 57 26
3 65 64 87
3 71 64 66
3 100 95 103
3 83 95 108
3 107 102 101
3 95 102 108
3 89 90 106
3 107 90 99
3 17 90 98
3 106 90 107
3 17 41 15
3 98 39 41
3 86 78 88
3 78 39 98
3 107 99 108
3 16 99 17
3 9 55 11
3 18 55 12
3 44 91 26
3 8 96 6
3 57 8 63
3 8 91 96
3 104 36 42
3 34 104 72
3 52 46 97
3 96 46 6
3 72 104 54
3 36 104 34
3 54 49 48
3 32 72 59
3 59 48 50
3 54 48 72
3 5 4 69
3 61 4 3
